PathFileType	4	(X/Y/Z)	41_2_82_p0_0-410_filt_butterworth.trc
DataRate	CameraRate	NumFrames	NumMarkers	Units	OrigDataRate	OrigDataStartFrame	OrigNumFrames
59.0	59.0	7	27	m	59.0	205	410
Frame#	Time	RHip			RKnee			RAnkle			RBigToe			RSmallToe			RHeel			LHip			LKnee			LAnkle			LBigToe			LSmallToe			LHeel			Neck			Head			Nose			RShoulder			RElbow			RWrist			RThumb			RIndex			RPinky			LShoulder			LElbow			LWrist			LThumb			LIndex			LPinky			
		X1	Y1	Z1	X2	Y2	Z2	X3	Y3	Z3	X4	Y4	Z4	X5	Y5	Z5	X6	Y6	Z6	X7	Y7	Z7	X8	Y8	Z8	X9	Y9	Z9	X10	Y10	Z10	X11	Y11	Z11	X12	Y12	Z12	X13	Y13	Z13	X14	Y14	Z14	X15	Y15	Z15	X16	Y16	Z16	X17	Y17	Z17	X18	Y18	Z18	X19	Y19	Z19	X20	Y20	Z20	X21	Y21	Z21	X22	Y22	Z22	X23	Y23	Z23	X24	Y24	Z24	X25	Y25	Z25	X26	Y26	Z26	X27	Y27	Z27	
205	3.4745762711864407	0.39108606802552814	0.7881055295927676	0.5992695252396075	0.3982596077039221	0.344332831402855	0.6767911207674017	0.37336899412266394	-0.008624843684112593	0.7017702884506621	0.3659264898148499	-0.026609311483380506	0.549524591188009	0.42954689913045935	-0.020054692464161347	0.5622792298796075	0.3461705374268764	-0.07729792569251359	0.7693555664197501	0.20157304515811372	0.7650832257934856	0.6452426325904103	0.17708372031963318	0.3381985288586893	0.6881881124077156	0.17879335532995783	-0.022416213865564194	0.6997481524323366	0.19147782060870822	0.006882372241449934	0.5066575546103772	0.14173006123826776	-0.02111963719805588	0.572902690036231	0.19784852019988053	-0.07587766932475871	0.7391600838710648	0.2780517779726537	1.2894835749552507	0.6787952392577938	0.2705567575435673	1.527213066135515	0.6864396213330748	0.2693322143301155	1.4274224134657436	0.5404457567773486	0.4288778991202796	1.1816332830929772	0.6725077221881174	0.45426355810577174	0.9829602439182167	0.573311782401704	0.37812057626720297	0.8733717067113611	0.42224908191326727	0.2592166586666801	0.8374227119395073	0.37002214852899035	0.2570519387621672	0.8018867238373936	0.3802794002921125	0.29679939894797297	0.7782419496168985	0.41008695375798254	0.1270213984162975	1.1995755296979942	0.6534483303217296	0.11998659575526816	0.9850037920322164	0.5876748972304955	0.2139585905345449	0.864628893031445	0.446222596133348	0.2732258583133883	0.852122243190199	0.3965318891379355	0.29246604894084194	0.806482203082961	0.4083951441373346	0.2720229148326032	0.7895171902372182	0.4075432907578711	
206	3.4915254237288136	0.39083681833358624	0.7884814608270085	0.5986158974599035	0.39841898748004834	0.34404077633066277	0.6770905354503092	0.3735521508321403	-0.009919081797203522	0.7026540962639442	0.36573712774023637	-0.026179133851533816	0.5493089230413806	0.4284675632267443	-0.018648820723701838	0.5603135332665762	0.3460776902706699	-0.0776158338338565	0.768601490784719	0.20175719498128486	0.7656167388769676	0.645485976086824	0.1766952880026123	0.3384782806127254	0.688247803315587	0.17875571271159427	-0.022386908404174954	0.6997393694819639	0.19147388621898895	0.006909012509504167	0.5066379252460145	0.14244503669122527	-0.02022435428159384	0.570907662171847	0.19781522241737873	-0.07596169382801746	0.7391831643607689	0.27910530439253867	1.2894453995785464	0.6763592692853204	0.2712207970359791	1.5272797221557681	0.6866150121126541	0.27068259935901445	1.4284564954746055	0.5393713268358626	0.42885484239246485	1.1817044308566325	0.671954109261832	0.45430010352504296	0.9830066752395467	0.5733459923109009	0.3756809677326223	0.8732694695493137	0.4223013039308731	0.2574027073343508	0.8374450670718565	0.3675816258293874	0.25565946435124526	0.8033555524639177	0.3759874384220907	0.2946750449501781	0.7790250550103276	0.40802751010434635	0.1286377402245269	1.199734630519026	0.6538362266065343	0.11983926180187238	0.9865616844781815	0.5860662881847938	0.21286676954031056	0.8653422188249835	0.44398705979746017	0.27092798780933547	0.8552206371555894	0.3928709238549397	0.2898600053694036	0.8066113299579964	0.4082944467209238	0.2699150686967054	0.7899700843141064	0.4064505230185217	
207	3.5084745762711864	0.39043214561544914	0.7887875614130563	0.5977675669998803	0.3984866521416133	0.3437164655992455	0.677223880510926	0.37378588542970526	-0.010828302642671511	0.7030690597913537	0.36530367347772164	-0.025313504254569914	0.5482873479998096	0.4273982625393753	-0.017240743136564866	0.5578542000206334	0.3459018249521129	-0.07787301148514406	0.7677428513890201	0.2019587432417951	0.7661888938901669	0.6457275266361927	0.1763414687762561	0.3387398604611646	0.6882911702305867	0.17872644114366656	-0.022360435883356636	0.6997564180604658	0.19140728720109923	0.0069436778466248975	0.5065654633435439	0.14277864226494222	-0.01974334354520673	0.569703835509908	0.19779769057645538	-0.07612725620492419	0.7392145587663725	0.2804588928206161	1.2893132388991209	0.6737489270767544	0.2716167305410643	1.527426016213711	0.6866573562737824	0.2723172666911135	1.4291730703601173	0.5402954279357586	0.4290547648751836	1.181696606061997	0.670689075304377	0.4544806703207571	0.9830694572733178	0.5733949150789305	0.37275834151051435	0.8729567755027582	0.42274922903443835	0.2555868023320541	0.8375337662660404	0.3657992206054853	0.25429285747606073	0.8046731300063382	0.37193111526524153	0.29318082319816996	0.779456871068893	0.40678245590319106	0.13015375870126034	1.1997083251169893	0.6551024044542061	0.11992202346927203	0.9872035110476607	0.5858528631209929	0.21145011828335308	0.8659495327386046	0.4421048205082662	0.2676979423778316	0.8586951143436933	0.3886187795019005	0.28612844674921534	0.8069989978467067	0.4077833643087464	0.26732954856154845	0.7903787447285345	0.4055335436599289	
208	3.52542372881356	0.3899360218612923	0.7888788549816164	0.5967876076717462	0.3983816583154764	0.34343129615644985	0.6771123824069587	0.37398104483357064	-0.011277608687906615	0.7029587512557225	0.36463039376032114	-0.024027007234906535	0.5464951222045918	0.42656532402615943	-0.016256522112690026	0.5557537179427353	0.34567636736835905	-0.07803270767837123	0.7667808365670746	0.20219563756503053	0.7666726619051711	0.6459785416776861	0.17603068263092814	0.3389747787219286	0.6883154636874234	0.17870363777093642	-0.022315398298680525	0.699785949695139	0.1913562547963587	0.006974004678182585	0.5064813151632236	0.14251043284145423	-0.01971116640611549	0.5692974554755272	0.19779834103075533	-0.0762690556682989	0.739274032492612	0.2819230342399992	1.2891023591525457	0.6713296874895945	0.27172630328446645	1.527583839006789	0.6866059657085257	0.2743628901062114	1.4292754798737448	0.5430469811029898	0.42953684370285433	1.181618395090571	0.6687208693679546	0.4547580904916066	0.9831284218906633	0.5734743528255669	0.36959595285389346	0.8727988133399156	0.42270429388781855	0.25382826104811507	0.8378410044076963	0.36474420340680513	0.25314061987878933	0.8056284571881416	0.3684817605469014	0.29254904616742905	0.779489632365627	0.4064846152055328	0.13153738475548918	1.1994676128860473	0.6571908754898458	0.12029138332074907	0.9868696534246157	0.5869506200833438	0.2097830981618649	0.8663481939044029	0.44083193721738456	0.2636402131780942	0.8622101735080512	0.38405993944062206	0.28128787538286937	0.8079888155774767	0.40602558575578795	0.2644082890978925	0.7908421646053769	0.40423377601164046	
209	3.542372881355932	0.38942322616422365	0.7886898419193618	0.5957416744311194	0.3980893577140741	0.34321746200113623	0.6767570124923629	0.3740743241582876	-0.011278247195376734	0.7023745277989417	0.3637824978942702	-0.02244662314519834	0.5442081038267198	0.4260664070580966	-0.015974501901177093	0.5546156896213047	0.34543861961114747	-0.07803484003481909	0.7657147560508389	0.2024732418796869	0.7670097322637995	0.6462418433015451	0.1757694541262416	0.3391777731854717	0.688326397460901	0.17869500457000503	-0.022297997079859272	0.6998159056434883	0.1913284964108391	0.006989673551232596	0.5064092694998331	0.14164691817617917	-0.019957247764511035	0.5693535608756215	0.1978144168694293	-0.07632210015352477	0.7393585290157706	0.2832916321221866	1.2888324597303495	0.6694566410063896	0.2716376323180528	1.527560365700634	0.6865169417265982	0.27684024973455545	1.4287114210908531	0.5470963335275643	0.4303408694661698	1.1815139611412284	0.6662379664425279	0.4550104411483352	0.9831060213994017	0.5736346357877814	0.36634913448967277	0.873094399474546	0.42160041802373915	0.25220910224116755	0.838516259660343	0.3644699885521287	0.2523005869338464	0.8061438923187242	0.3658521075799447	0.29239794912608824	0.7793636103856584	0.4065601590266981	0.1327424235817293	1.1990218370425823	0.659777293495778	0.12079177309642818	0.9856514079019763	0.5889685952811625	0.20806439522777956	0.8663935713117198	0.4402547171617126	0.2592086133444206	0.865215917713568	0.3797909585704877	0.27559534613908043	0.8096624364128198	0.4023825835911033	0.26126927902570346	0.7913784980390588	0.4021476855758608	
210	3.559322033898305	0.38894310899816176	0.7882404229100736	0.5947347231536528	0.3976362285784464	0.34307396765332926	0.6761895960449399	0.3740393191301471	-0.010854877184844375	0.7013538896860397	0.3628672116668361	-0.020768646911680136	0.5417778656775859	0.42592389176926865	-0.016209874357495213	0.5542876281582636	0.3452149480346354	-0.07785042914811903	0.7645640388527166	0.20279112369083116	0.7671446026642565	0.6465094235007444	0.17556533185428272	0.33935229555754276	0.6883348277817757	0.1787154027183056	-0.022414859719750962	0.699828542663053	0.19130728241448225	0.006982944853688118	0.5063555177979694	0.14040047076929243	-0.020172152450974458	0.5694214859122596	0.19784977785811989	-0.07632125354367117	0.7394603012379609	0.28438310642767833	1.2885407341904354	0.6684074800564529	0.27148950011530265	1.527153891171857	0.6864032709184393	0.27960275076527386	1.4275627918529852	0.5520654376110173	0.43144714065416606	1.1814258799734072	0.6635485905921663	0.4551481028939868	0.9829341560739419	0.5738928576120519	0.3631324525852343	0.8739389490719291	0.4193626748801558	0.25079849433274237	0.839474945261799	0.3647832444350218	0.25153334381016607	0.8062858061587604	0.3639755585266407	0.2917848332829998	0.7795490556830746	0.40584933155052716	0.133691590332928	1.1985165683469639	0.6624913241095733	0.12118354174248834	0.9838723126419717	0.5914484654847225	0.20652596337408802	0.8659998852794564	0.4401980567407595	0.25506730177169384	0.8672266236091425	0.3761867398255482	0.26950625317961896	0.8117877348396426	0.39659415836332707	0.25804443059214865	0.7919584647085954	0.39902118133715125	
211	3.5762711864406778	0.38849888331884735	0.7875538818338403	0.5939506153769795	0.3970585581945863	0.34299667967100556	0.6754423107410114	0.37390069377392	-0.010026282492612712	0.6998652342916081	0.36200902863279716	-0.019212636683190835	0.5395458072820664	0.42609529442905975	-0.016396268078023003	0.5538962484621717	0.345014011930494	-0.07751049765467079	0.7633637670200618	0.20315649038588404	0.7669740823761646	0.6467834509973729	0.1754285447809195	0.33951346120919756	0.6883431635995403	0.17877485000696175	-0.02274504648092268	0.6998063969781693	0.19127841180623595	0.006956644836959069	0.5063126533765218	0.13901136910124967	-0.02015260172334507	0.5692848403511329	0.1979162541039674	-0.07634558194308164	0.7395773541500034	0.28508386822930853	1.2882960303834623	0.6682129000196187	0.27140349702777483	1.5263037066276444	0.6862128189198053	0.2824157641413736	1.4260040247650125	0.5576427299713805	0.43271753172856275	1.1813801017321508	0.6610245529588731	0.45514123515812976	0.9826509936714127	0.5740624473629439	0.3598818580059318	0.875269914100967	0.4160162924636824	0.2495819672955873	0.8405188307067789	0.36510964032939885	0.25036274531704633	0.8061378211623755	0.3628127203007994	0.28980742674325755	0.7804284714764662	0.403357444651297	0.1343105693237419	1.1981905871944714	0.664996530644586	0.12128478361445647	0.9820792391718686	0.5941201316560955	0.20533367680585504	0.8652707763072637	0.4403311389091319	0.251791987808844	0.8681232297445105	0.3730432414638736	0.2635967260566786	0.8140270575071366	0.3887914504831079	0.25492467899521076	0.7925784862582689	0.39471492018156595	
